<svg width="47" height="35" viewBox="0 0 47 35" fill="none" xmlns="http://www.w3.org/2000/svg">
<path fill-rule="evenodd" clip-rule="evenodd" d="M45.4996 0.934963C45.7022 1.05654 45.8691 1.22936 45.9837 1.43602C46.0929 1.6331 46.1509 1.85447 46.1522 2.07978C46.1535 2.3051 46.0982 2.52713 45.9913 2.7255L38.939 15.8166C38.8225 16.0326 38.6492 16.2126 38.4378 16.3371L31.678 20.3198L26.295 29.697C26.1425 29.9627 25.9039 30.1683 25.6186 30.2799L13.8477 34.8846C13.5905 34.9851 13.3086 35.0041 13.0403 34.9388C12.772 34.8736 12.5303 34.7273 12.348 34.5199C12.1658 34.3125 12.0518 34.054 12.0215 33.7796C11.9913 33.5051 12.0462 33.228 12.179 32.9859L17.95 22.465L13.7914 15.4605L2.03668 15.8334C1.75538 15.8423 1.47837 15.7628 1.24468 15.6059C1.011 15.4491 0.832407 15.2229 0.734079 14.9592C0.635767 14.6955 0.622675 14.4076 0.696649 14.136C0.770609 13.8645 0.927927 13.623 1.14642 13.4456L10.7395 5.65786C10.9737 5.46786 11.265 5.36213 11.5665 5.35763L22.3781 5.19285L30.0032 0.700313C30.2165 0.574718 30.4602 0.510395 30.7076 0.514431L44.8296 0.743503C45.0659 0.747348 45.2969 0.813381 45.4996 0.934963ZM31.1254 3.52459L42.055 3.70124L34.1981 8.3306L34.3005 6.89743L34.3001 6.89617C34.3085 6.77665 34.2837 6.65979 34.231 6.55677C34.1784 6.45375 34.0985 6.36477 33.9974 6.30171L33.9951 6.30079C33.7931 6.17572 33.5337 6.17094 33.3265 6.293L27.2308 9.88413C27.0237 10.0062 26.9016 10.2344 26.9131 10.4731L26.9128 10.4755C26.9183 10.58 26.949 10.6819 27.0014 10.7708C27.0687 10.8849 27.1687 10.9731 27.2857 11.0279L27.2873 11.0294L28.5907 11.6343L18.5306 17.5614L15.9677 13.2445C15.8162 12.9896 15.5993 12.78 15.3393 12.6374C15.0794 12.4948 14.786 12.4245 14.4896 12.4339L6.85905 12.6759L12.1869 8.35083L22.7792 8.18985C23.0668 8.18566 23.3483 8.10675 23.5962 7.96089L31.1254 3.52459ZM29.8357 10.3308L32.4547 8.78803L32.2638 11.4575L29.8357 10.3308Z" fill="black"/>
</svg>
