<?xml version="1.0" standalone="no"?>
<!DOCTYPE svg PUBLIC "-//W3C//DTD SVG 20010904//EN"
 "http://www.w3.org/TR/2001/REC-SVG-20010904/DTD/svg10.dtd">
<svg version="1.0" xmlns="http://www.w3.org/2000/svg"
 width="700px" height="700px" viewBox="0 0 700.000000 700.000000"
 preserveAspectRatio="xMidYMid meet">
<g transform="translate(0.000000,700.000000) scale(0.100000,-0.100000)"
fill="#000000" stroke="none">
<path d="M3509 6196 c-2 -2 -65 -6 -139 -10 -74 -3 -148 -8 -165 -10 -16 -3
-64 -10 -105 -16 -195 -28 -445 -99 -638 -182 -628 -269 -1131 -766 -1411
-1396 -114 -255 -194 -565 -218 -838 -13 -152 -7 -475 11 -570 2 -10 7 -44 10
-74 5 -45 31 -167 61 -285 3 -11 8 -35 11 -52 3 -18 9 -33 13 -33 4 0 8 -6 8
-14 0 -31 56 -185 66 -179 6 3 7 1 4 -4 -9 -15 17 -75 28 -66 4 5 5 2 1 -5 -5
-8 5 -43 25 -85 34 -74 151 -288 169 -310 6 -7 29 -41 51 -76 38 -60 168 -226
225 -289 389 -421 855 -697 1384 -821 69 -16 147 -32 173 -36 27 -3 59 -8 70
-11 130 -25 658 -25 757 1 8 3 31 7 50 10 166 26 428 98 550 151 19 9 44 19
55 23 11 4 65 29 120 55 434 206 808 531 1081 941 107 159 173 288 250 488 33
85 92 277 101 327 2 14 8 41 13 60 5 19 12 51 15 70 3 19 7 46 10 60 30 158
38 497 16 665 -12 93 -48 260 -60 283 -4 7 -27 -57 -52 -147 -24 -87 -45 -158
-46 -157 -1 1 -5 29 -8 61 -11 115 -16 151 -40 270 -26 131 -78 302 -122 405
-34 78 -105 210 -113 210 -4 0 -7 -78 -7 -172 -3 -525 -68 -984 -192 -1349
-65 -193 -198 -479 -295 -637 -232 -375 -586 -669 -996 -828 -87 -33 -282 -88
-355 -99 -294 -46 -527 -41 -792 16 -769 165 -1389 799 -1537 1574 -23 119
-25 130 -33 239 -10 144 -5 347 12 426 2 13 7 41 10 61 3 20 17 81 31 135 14
55 26 106 28 114 21 90 145 358 218 475 152 240 385 474 629 631 225 144 538
259 819 300 72 10 378 13 455 3 196 -23 223 -27 350 -50 458 -84 915 -282
1453 -632 72 -48 132 -81 132 -74 0 20 -97 183 -158 266 -109 150 -255 301
-406 420 -48 39 -86 71 -82 71 3 0 23 -6 43 -14 90 -34 265 -87 274 -84 6 2
-31 46 -83 97 -250 251 -575 445 -945 564 -112 37 -283 80 -358 91 -22 4 -76
12 -120 19 -45 7 -128 14 -185 16 -58 1 -107 4 -111 7 -3 2 -8 2 -10 0z"/>
</g>
</svg>
